<svg version="1.1" id="g4m-logo_svg__Layer_1" xmlns="http://www.w3.org/2000/svg" x="0" y="0" viewBox="0 0 382.9 125.6" xml:space="preserve"><style>.g4m-logo_svg__st0{fill:#9a999a}.g4m-logo_svg__st1{fill:#d35266}</style><path class="g4m-logo_svg__st0" d="M200.2 87.6c-5.7 4.7-13 7.6-20.9 7.6s-15.1-2.9-20.7-7.6h-39c1.1 2.8 2.5 5.5 4 8 .2.3.5.6.9.6.4.1.8 0 1.1-.2 2.5-1.9 5.5-2.8 8.6-2.8 3.8 0 7.4 1.5 10.1 4.2 5 5 5.5 13.1 1.2 18.8-.2.3-.3.7-.2 1.1.1.4.3.7.6.9 5.4 3.3 11.2 5.7 17.3 7.3.4.1.8 0 1.1-.2.3-.2.5-.6.6-.9 1-7.1 7.1-12.4 14.3-12.4 7.2 0 13.3 5.4 14.2 12.5 0 .4.3.7.6.9.2.2.5.2.8.2h.3c6.1-1.5 12-3.9 17.4-7.1.3-.2.6-.5.6-.9.1-.4 0-.8-.3-1.1-4.4-5.7-3.8-13.8 1.3-18.9 2.7-2.7 6.3-4.2 10.1-4.2 3.2 0 6.3 1.1 8.8 3.1.3.2.7.3 1.1.3.4-.1.7-.3.9-.6 1.7-2.8 3.1-5.6 4.3-8.6h-39.1zM155 41.3c6-6.8 14.8-11.1 24.5-11.1s18.4 4.3 24.3 11.1h36.7c-1.4-4.1-3.2-8-5.4-11.7-.2-.3-.5-.6-.9-.6-.4-.1-.8 0-1.1.3-2.5 1.9-5.6 3-8.8 3-3.8 0-7.4-1.5-10.1-4.2-5.1-5.1-5.6-13.2-1.1-18.9.2-.3.3-.7.3-1.1-.1-.4-.3-.7-.6-.9-5.4-3.2-11.3-5.7-17.4-7.2-.4-.1-.8 0-1.1.2-.3.2-.5.6-.6.9-1 7.1-7.1 12.5-14.3 12.4-7.1 0-13.2-5.4-14.2-12.4-.1-.4-.3-.7-.6-.9-.3-.2-.7-.3-1.1-.2-6.1 1.5-11.9 3.9-17.3 7.2-.3.2-.6.5-.6.9-.1.4 0 .8.2 1.1 4.3 5.7 3.7 13.8-1.4 18.8-2.7 2.7-6.3 4.2-10.1 4.2-3.1 0-6.1-1-8.6-2.9-.3-.2-.7-.3-1.1-.2s-.7.3-.9.6c-2.3 3.8-4.1 7.8-5.5 11.9H155v-.3z"></path><path class="g4m-logo_svg__st1" d="M178.4 87.6v-8.9l-21.2-.1v-9.4L178.5 38h11.8l-.1 30.8h4.8v9.9h-4.8v8.9h-11.8zm1.4-35L169 69.1h10.3l.5-16.5zM201.2 83.4l.1-37.5h10v5c2.3-3.8 5.7-5.7 10.2-5.7s8 2 10.4 6c3.9-4.1 6.9-6 11.6-6 8.5 0 13.2 4.8 13.2 13.5l-.1 24.7h-10.8l.1-20.3c0-5.2-1.1-7.6-5.2-7.6-4.2 0-6.4 2.6-6.5 7.6l-.1 20.3h-10.8l.1-20.3c0-5.2-1.1-7.6-5.2-7.6-4.2 0-6.4 2.6-6.5 7.6l-.1 20.3h-10.4zM292.7 46.2l-.1 37.5h-10.3v-5c-2.4 3.9-6 5.7-10.8 5.7-7.8 0-12.8-4.9-12.8-13.5l.1-24.7h11.1l-.1 20.3c0 5.2 1.1 7.6 5.4 7.6 4.3 0 6.6-2.6 6.6-7.6l.1-20.3h10.8zM322.2 57.6c-2.2-2.6-6.8-4-10.3-4-2.7 0-4.7 1-4.7 2.9 0 6.4 22 1.2 22 15.1 0 9.8-8.7 13.3-16.8 13.2-8.1 0-12.7-2.3-18.2-7.4l6.8-5.9c3.3 3.2 6.8 5.3 11.7 5.3 1.8 0 5.9-.4 6-3.8 0-5.8-22-1.3-22-14.5 0-9.4 8.2-13 15.8-13 5.7 0 11.4 2.1 16.4 5.4l-6.7 6.7zM331.2 42.9v-8.7h11v8.7h-11zm-.1 40.9l.1-37.5h11l-.1 37.5h-11zM382.9 70.6c-2.8 9-10.1 14.4-19.3 14.3-5.7 0-10.3-2-14.2-6.1-3.6-3.9-5.5-8.8-5.5-14s2.1-10 5.8-13.8c3.9-3.9 8.5-5.8 13.9-5.8 9.4 0 16.3 5.2 19.3 14.7h-11.7c-1.5-2.6-4.1-4-7.7-4-5 0-8.6 3.7-8.6 8.9 0 5.7 3.6 9.3 8.9 9.3 3 0 5.5-1.2 7.3-3.7l11.8.2z"></path><g><path class="g4m-logo_svg__st1" d="M124.6 79c-3.3 3.2-6.7 4.4-11.1 4.4-4.5 0-8.5-1.5-11.7-4.4-4.3-3.9-6.5-8.9-6.5-14.8 0-5.4 2.1-10.2 6.1-14 3.5-3.4 7.8-5.1 12.5-5.1 4.5 0 8 1.6 10.5 4.8v-4.2h11l-.1 37.5h-10.7V79zm-8.7-5.6c4.8 0 8.7-3.9 8.8-9.1 0-5.4-4-9.4-9.1-9.5-5.2 0-9.3 4.2-9.3 9.3-.1 5.3 4 9.3 9.6 9.3zM93.9 68.2v-1.1c0-14-8.1-22.6-20.1-22.6-5.1 0-10.1 2.1-13.9 5.8-3.7 3.7-5.8 8.5-5.8 13.8S56 74.2 59.6 78c3.8 4.1 8.4 6 14.2 6.1 8.4 0 14.6-3.9 18.3-11.8H79.9c-1.7 1.5-3.5 2.1-5.7 2.1-4.8 0-7.7-2.1-8.6-6.1l28.3-.1zm-20-13.8c4.4 0 7.5 2.1 8.9 6H65.3c.7-3.6 4-6 8.6-6zM52.1 56.1H19.2v9.4h23c-1.9 7-8.3 12.2-15.9 12.2-9.1 0-16.4-7.4-16.4-16.5s7.4-16.4 16.5-16.4c5.6 0 10.4 2.8 13.4 7h11.1c-3.8-9.9-13.3-16.9-24.5-16.9C11.9 34.9.1 46.6 0 61.1c0 14.5 11.7 26.3 26.2 26.4 14.5 0 26.3-11.7 26.4-26.2 0-1.7-.2-3.5-.5-5.2zM148.4 45.7v5.1c1.8-3.8 4.9-5.6 11.1-5.6v10.2h-2c-7 0-8.5 2.4-8.5 9.3l-.1 18.6h-11.2l.1-37.5 10.6-.1z"></path></g></svg>